<?xml version="1.0" encoding="utf-8"?>
<!-- Generator: Adobe Illustrator 18.0.0, SVG Export Plug-In . SVG Version: 6.00 Build 0)  -->
<!DOCTYPE svg PUBLIC "-//W3C//DTD SVG 1.1//EN" "http://www.w3.org/Graphics/SVG/1.1/DTD/svg11.dtd">
<svg version="1.1" id="Layer_1" xmlns="http://www.w3.org/2000/svg" xmlns:xlink="http://www.w3.org/1999/xlink" x="0px" y="0px"
	 viewBox="0 0 188.7 49.8" enable-background="new 0 0 188.7 49.8" xml:space="preserve">
<rect y="0" fill="#CB0000" width="49.8" height="49.8"/>
<polygon fill="#FFFFFF" points="7.5,25.7 11.9,21.3 20.3,29.6 37,12.9 42.3,18.2 21.1,39.4 "/>
<path fill="#CB0000" d="M110.2,39.8v-5.9H94v-7.1h13.8v-5.7H94v-5.5h14.8V9.8H86.5v30H110.2z M84.1,39.8v-6.3H72.3V9.8h-7.5v30H84.1
	z"/>
<polygon fill="#CB0000" points="110.2,39.8 110.2,33.9 94,33.9 94,26.8 107.9,26.8 107.9,21.1 94,21.1 94,15.6 108.8,15.6 
	108.8,9.8 86.5,9.8 86.5,39.8 "/>
<polygon fill="#CB0000" points="136.4,39.8 136.4,33.9 120.2,33.9 120.2,26.8 134,26.8 134,21.1 120.2,21.1 120.2,15.6 135,15.6 
	135,9.8 112.7,9.8 112.7,39.8 "/>
<g>
	<defs>
		<rect id="SVGID_1_" y="0" width="188.7" height="49.8"/>
	</defs>
	<clipPath id="SVGID_2_">
		<use xlink:href="#SVGID_1_"  overflow="visible"/>
	</clipPath>
	<path clip-path="url(#SVGID_2_)" fill="#CB0000" d="M188.7,40v-6.3h-11.8V10.1h-7.5v30H188.7z M166.2,40V23.4H153v5.7h6.8
		c0,0.3-0.2,1.5-0.6,2.5c-0.9,1.8-2.7,2.5-3.3,2.8c-1.2,0.4-2.1,0.4-2.6,0.4c-1.7,0-3.1-0.6-3.6-0.8c-0.4-0.2-1.4-0.7-2.2-1.7
		c-2.1-2.5-2.1-6.8-2.1-7.4c0-4.8,2-7.4,3.8-8.6c1.6-1,3.6-1.1,4.1-1.1c0.9,0,3.2,0.1,5.1,1.8c0.9,0.8,1.8,2.2,1.9,2.4l5.7-3.4
		c-0.9-1.1-1.5-2-2.6-2.9c-1.6-1.4-5-4-10.7-4c-3.7,0-6.2,1.2-7.4,1.9c-7,3.9-7.4,11.9-7.4,14.1c0,5.8,2.3,11.8,7.8,14.4
		c2.5,1.2,4.7,1.3,5.8,1.3c1.2,0,4.2-0.1,7.1-2c0.4-0.3,1-0.8,1.8-1.5V40H166.2z"/>
</g>
</svg>
